<mxfile host="app.diagrams.net" modified="2023-10-09T08:10:25.497Z" agent="Mozilla/5.0 (Macintosh; Intel Mac OS X 10_15_7) AppleWebKit/537.36 (KHTML, like Gecko) Chrome/117.0.0.0 Safari/537.36" etag="JlMcmmbR4cqHo6UzlsB6" version="21.8.2" type="github">
  <diagram name="第 1 页" id="T0QZJRiEJ-4Tnowe0s38">
    <mxGraphModel dx="954" dy="495" grid="1" gridSize="10" guides="1" tooltips="1" connect="1" arrows="1" fold="1" page="1" pageScale="1" pageWidth="827" pageHeight="1169" math="0" shadow="0">
      <root>
        <mxCell id="0" />
        <mxCell id="1" parent="0" />
        <mxCell id="2ZlbLJ-4laBUCpMmUqpr-1" value="开始" style="ellipse;whiteSpace=wrap;html=1;aspect=fixed;" vertex="1" parent="1">
          <mxGeometry x="374" y="20" width="80" height="80" as="geometry" />
        </mxCell>
        <mxCell id="2ZlbLJ-4laBUCpMmUqpr-3" value="获取当前评估&lt;br&gt;月份的所有理&lt;br&gt;赔融合表数据" style="shape=parallelogram;html=1;strokeWidth=2;perimeter=parallelogramPerimeter;whiteSpace=wrap;rounded=1;arcSize=12;size=0.23;" vertex="1" parent="1">
          <mxGeometry x="351" y="130" width="126" height="80" as="geometry" />
        </mxCell>
        <mxCell id="2ZlbLJ-4laBUCpMmUqpr-4" value="按机构代码，险种代码，险别代码，保单起期日期，报案日期，核赔日，业务类型，保单号进行分组" style="rounded=1;whiteSpace=wrap;html=1;absoluteArcSize=1;arcSize=14;strokeWidth=2;" vertex="1" parent="1">
          <mxGeometry x="364" y="240" width="100" height="100" as="geometry" />
        </mxCell>
        <mxCell id="2ZlbLJ-4laBUCpMmUqpr-5" value="计算再保前已决/未决赔款" style="rounded=1;whiteSpace=wrap;html=1;absoluteArcSize=1;arcSize=14;strokeWidth=2;" vertex="1" parent="1">
          <mxGeometry x="364" y="370" width="100" height="100" as="geometry" />
        </mxCell>
        <mxCell id="2ZlbLJ-4laBUCpMmUqpr-6" value="计算再保摊回已决/未决赔款" style="rounded=1;whiteSpace=wrap;html=1;absoluteArcSize=1;arcSize=14;strokeWidth=2;" vertex="1" parent="1">
          <mxGeometry x="364" y="500" width="100" height="100" as="geometry" />
        </mxCell>
        <mxCell id="2ZlbLJ-4laBUCpMmUqpr-7" value="计算案件数" style="rounded=1;whiteSpace=wrap;html=1;absoluteArcSize=1;arcSize=14;strokeWidth=2;" vertex="1" parent="1">
          <mxGeometry x="364" y="620" width="100" height="100" as="geometry" />
        </mxCell>
        <mxCell id="2ZlbLJ-4laBUCpMmUqpr-8" value="计算非零案件数" style="rounded=1;whiteSpace=wrap;html=1;absoluteArcSize=1;arcSize=14;strokeWidth=2;" vertex="1" parent="1">
          <mxGeometry x="364" y="750" width="100" height="100" as="geometry" />
        </mxCell>
        <mxCell id="2ZlbLJ-4laBUCpMmUqpr-9" value="再保前已决赔款求和" style="shape=tape;whiteSpace=wrap;html=1;strokeWidth=2;size=0.19" vertex="1" parent="1">
          <mxGeometry x="210" y="387.5" width="100" height="65" as="geometry" />
        </mxCell>
        <mxCell id="2ZlbLJ-4laBUCpMmUqpr-10" value="再保-已决赔款求和" style="shape=tape;whiteSpace=wrap;html=1;strokeWidth=2;size=0.19" vertex="1" parent="1">
          <mxGeometry x="210" y="517.5" width="100" height="65" as="geometry" />
        </mxCell>
        <mxCell id="2ZlbLJ-4laBUCpMmUqpr-11" value="再保前已决赔款金额为0并且未决赔款金额为0的数量" style="shape=tape;whiteSpace=wrap;html=1;strokeWidth=2;size=0.19" vertex="1" parent="1">
          <mxGeometry x="210" y="637.5" width="100" height="65" as="geometry" />
        </mxCell>
        <mxCell id="2ZlbLJ-4laBUCpMmUqpr-12" value="再保前已决赔款金额&amp;gt;0并且未决赔款金额&amp;gt;0的数量" style="shape=tape;whiteSpace=wrap;html=1;strokeWidth=2;size=0.19" vertex="1" parent="1">
          <mxGeometry x="210" y="767.5" width="100" height="65" as="geometry" />
        </mxCell>
      </root>
    </mxGraphModel>
  </diagram>
</mxfile>
